<?xml version="1.0" encoding="UTF-8"?> <!-- Generator: Adobe Illustrator 24.1.3, SVG Export Plug-In . SVG Version: 6.00 Build 0) --> <svg xmlns="http://www.w3.org/2000/svg" xmlns:xlink="http://www.w3.org/1999/xlink" version="1.1" id="Layer_1" x="0px" y="0px" viewBox="0 0 3500 620.1" style="enable-background:new 0 0 3500 620.1;" xml:space="preserve"> <style type="text/css"> .st0{fill:#FFFFFF;} </style> <g> <path class="st0" d="M2955.7,588.1c0,0.9,0.4,1.8,0.7,3c2.2,0.1,4.1,0.2,6.1,0.2c81.1,0,162.2,0,243.3,0c16.9,0,33.7-1.4,50.3-4.4 c25.7-4.7,50.2-13,73.5-24.6c17.9-8.9,34.7-19.5,50.3-31.9h-424.2C2955.6,549.6,2955.6,568.8,2955.7,588.1z"></path> <path class="st0" d="M3483.8,287.8c-1.6-18.6-5-36.9-10.4-54.8c-37.6-124.2-151.7-199.3-267.6-199c-81.1,0.2-162.2,0-243.3,0 c-2,0-3.9,0-6.3,0c-0.3,1.2-0.6,1.8-0.6,2.4c0,149,0,297.9,0,446.9h470.9c9.8-12.6,18.5-26.1,26-40.4c16.5-31,26.8-63.9,30.6-98.7 C3485.3,325.4,3485.5,306.6,3483.8,287.8z M3223.9,451.1c-11.2,2.9-22.6,4.3-34.1,4.3c-27.6,0-55.1,0-82.7,0 c-1.3,0-2.7-0.1-4.4-0.2c-0.2-1.4-0.4-2.5-0.4-3.6c-0.1-1.4,0-2.8,0-4.2c0-89.8,0-179.6,0-269.5c0-2.5-0.4-5.1,0.7-7.8 c1.4-0.1,2.8-0.4,4.1-0.4c28,0,55.9-0.4,83.9,0.1c65.2,1.2,120.2,44.8,136,107.8C3345.6,351.9,3303.1,430.5,3223.9,451.1z"></path> <path class="st0" d="M2705.8,590.7c2.4,0,4.6,0,6.8,0c45,0,89.9,0,134.9,0c1.4,0,2.8,0.1,4.2,0c1.1-0.1,2.2-0.4,3.3-0.6 c0.2-0.9,0.4-1.5,0.4-2.1c0-19.2,0-38.4,0-57.6h-188.4C2679.8,550.4,2692.8,570.5,2705.8,590.7z"></path> <path class="st0" d="M2364.3,589.1c0,0.2,0.1,0.4,0.2,0.6c0.1,0.2,0.3,0.3,0.4,0.4c0.4,0.2,0.7,0.4,1.1,0.4c1,0.1,2,0.1,3,0.1 c47.4,0,94.8-0.1,142.2-0.1c0.2,0,0.4,0,0.6-0.1c0.2-0.1,0.3-0.3,0.7-0.6c0.1-0.4,0.3-1.2,0.3-1.9c0-19.2,0-38.4,0-57.4h-148.6 C2364.2,549.9,2364.2,569.5,2364.3,589.1z"></path> <path class="st0" d="M2855,35.1c-0.1-0.2-0.3-0.3-0.7-0.7c-0.4-0.1-1.1-0.3-1.9-0.3c-48.6,0-97.1,0-146.5,0 c-0.1,3.2-0.2,5.8-0.2,8.3c0,93.8,0,187.6,0,281.3c0,2,0,4,0,5.9c0,0.7,0.1,1.6-1.5,1.9c-31.9-49.4-63.9-99-96-148.5 c-32-49.6-64.1-99.2-96.1-148.8c-1.2-0.1-2.2-0.2-3.2-0.2c-47.8,0-95.6,0.1-143.3,0.2c-0.2,0-0.4,0-0.6,0.1 c-0.2,0.1-0.3,0.3-0.8,0.8c-0.1,1.1-0.2,2.7-0.2,4.2c-0.7,67.4-0.5,353.1,0.1,443.9h148.5c0-8.6,0-17.3,0-25.9c0-9.1,0-18.2,0-27.4 c0-8.9,0-17.8,0-26.8c0-8.9,0-17.8,0-26.8c0-8.9,0-17.8,0-26.8c0-9.1,0-18.2,0-27.4c0.1-8.8-0.3-17.7,0.3-27.4 c2.3,1.9,3.3,3.8,4.4,5.6c26.6,40.9,53.1,81.8,79.7,122.6c13,20,26,40,39,60.1h219.1c0-148,0.1-296,0.1-444.1 c0-1.2-0.1-2.4-0.1-3.6C2855.1,35.4,2855.1,35.2,2855,35.1z"></path> <path class="st0" d="M1908.9,563.9c27.6,18.6,57.8,31,90,38.9c25.7,6.3,51.7,7.8,77.8,3.2c33.9-5.9,65.7-17.4,95.2-35.3 c18.5-11.2,35.3-24.6,50.1-40.4h-352.6C1881.2,543,1894.4,554.2,1908.9,563.9z"></path> <path class="st0" d="M2278.3,34.8c-0.5-0.4-0.6-0.6-0.8-0.6c-0.8-0.1-1.6-0.2-2.4-0.2c-50,0-99.9,0.1-149.9,0.1 c-0.2,0-0.4,0-0.6,0.1c-0.2,0.1-0.3,0.3-0.8,0.8c-0.5,2.1-0.2,4.7-0.2,7.2c0,111.4-0.1,222.9,0,334.3c0,22.8-9.1,41.1-26.2,55.6 c-11.5,9.7-24.8,15.4-39.7,17.5c-22.5,3.2-43-1.8-61.1-15.5c-15.9-12-25.7-27.8-28.2-47.8c-0.5-3.7-0.5-7.5-0.5-11.3 c0-110.4,0-220.9,0-331.3c0-2,0-4,0-5.9c0-1.1-0.3-2.2-0.4-3.3c-5.3-0.6-148-0.7-154.4,0c-0.1,2.2-0.2,4.2-0.2,6.1 c0,115.2,0,230.4,0,345.6c0,10.1,0.4,20.2,1.8,30.3c3.3,23.7,10.5,46,21.4,66.8h419.6c0.6-1.2,1.3-2.5,1.9-3.7 c10.6-21.5,17.4-44.2,20-68.1c1-9.5,1.3-19,1.3-28.5c0-113.4,0-226.8,0-340.2c0-2,0-4-0.1-5.9C2278.6,36,2278.3,35.3,2278.3,34.8z"></path> <path class="st0" d="M1360.3,592c25.1,9,51.1,14,77.7,15.8c28.1,2,55.8,0.2,83.3-5.5c36.7-7.6,70.5-22.1,101.9-42.5 c13.5-8.7,26.1-18.6,37.9-29.5h-403.3C1287.8,557.8,1322,578.2,1360.3,592z"></path> <path class="st0" d="M1743.5,228.6c-28.7-91.8-97-162.6-190.6-194.6c-25.4-8.7-51.7-13.3-78.6-14.6c-23.1-1.1-46,0.3-68.7,4.3 c-27.1,4.8-52.8,13.7-77.5,25.9c-105.3,52.1-164,156.3-165.2,258c-0.2,21.9,1.1,43.6,5.5,65c8.4,40.6,24.5,77.5,48,110.7h485.9 c5.7-8.1,11-16.6,15.9-25.3c19.8-35.2,32.1-72.8,36.2-113c1.8-18.4,2-36.8,0.5-55.2C1753.4,269,1749.8,248.5,1743.5,228.6z M1605.8,319.7c-2.3,45.6-19.9,84.1-54.9,113.9c-18.1,15.4-38.9,25.7-62.3,30.5c-14.3,2.9-28.6,3.4-43.2,2.3 c-41.6-3.2-93.5-30.5-118.8-88.2c-9-20.6-13.8-42.1-13.6-64.7c0.9-45.2,17-83.8,50.3-114.7c18.8-17.4,40.9-29,66.1-34.4 c15-3.2,30.2-3.6,45.5-2.3c39.4,3.4,87.2,28.7,113.1,79.2C1600.9,265.8,1607.2,292,1605.8,319.7z"></path> <path class="st0" d="M660.4,530.3c0,19.7,0,39.1,0,58.6c0,0.5,0.3,1.1,0.6,1.8c2.3,0.8,4.7,0.5,7,0.5c46.2,0,92.3,0,138.5,0 c1.2,0,2.4,0,3.6,0c1.1-0.1,2.3-0.2,3.3-0.3c0.7-4,0.8-42.7,0.4-60.5H660.4z"></path> <path class="st0" d="M1145.1,544.6c-2.7-4.8-5.4-9.6-8.1-14.3H970c11.5,20.7,22.8,40.6,34.2,60.8c2.5,0,4.9,0.1,7.2,0.1 c50.5,0,101.1,0,151.6,0c1.6,0,3.2,0,4.8,0c0.9,0,2,0.2,2.8-1.4c-3.8-7.5-8.3-14.9-12.5-22.5 C1153.8,559.8,1149.5,552.2,1145.1,544.6z"></path> <path class="st0" d="M1041.1,361.7c2.1-1.6,3.8-2.9,5.5-4.3c20.1-15.4,36.4-34.1,48.4-56.5c11.1-20.7,17.4-42.8,18.9-66.4 c1-15.3-0.2-30.5-3-45.6c-1.8-9.9-4.4-19.7-7.6-29.3c-5.9-17.4-14.5-33.4-26.2-47.6c-23.1-28.2-50.9-50.4-84.2-65.5 c-18.7-8.5-38.1-12.7-58.7-12.6C845.9,34.2,757.6,34,669.4,34c-1.8,0-3.6-0.1-5.4,0c-1.1,0-2.2,0.3-3.2,0.4 c-0.3,0.8-0.5,1.1-0.5,1.5c0,149.1-0.1,298.2-0.1,447.3h153.3c0-4.5,0-9.1,0-13.6c0-15.1-0.1-30.1-0.1-45.2c0-1.7-0.5-3.6,1.1-5.1 c30.8,0,61.7,0,92.9,0c12,21.3,24,42.6,36,63.9h166.7C1087.2,442.7,1064.2,402.4,1041.1,361.7z M947.2,253 c-12.3,15.7-28.5,24.1-48.5,25c-1.6,0.1-3.2,0.1-4.8,0.1c-25.9,0-51.9,0-77.8,0c-2.1,0-4.3,0.3-7-0.7c0-39.2,0-78,0-116.8 c0-0.5,0.4-1.1,0.7-2c1.7-0.1,3.4-0.3,5.2-0.3c26.3,0,52.7,0,79,0c10.6,0,20.9,1.8,30.5,6.5c9.4,4.6,17.2,11.2,23.5,19.6 C962.9,204.6,962.9,232.9,947.2,253z"></path> <path class="st0" d="M122.5,542.6c47.8,38.5,102.1,60.6,163.5,64.9c19,1.4,38,1,57-1c20.6-2.2,40.6-6.7,60.2-13.2 c12.4-4.1,24.5-9.1,36.3-14.7c1.5-0.7,2.9-2.2,5.1-1.4c1.1,4.5-0.6,9.4,1.1,14.3c2.4,0,4.8,0.1,7.2,0.1 c36.3,0.1,72.5,0.2,108.8,0.3c2.2,0,4.4,0.1,6.5,0c1.1,0,2.2-0.3,3.5-0.5c0.2-1.1,0.4-1.8,0.4-2.6c0.1-19.3,0.1-38.5,0.2-57.8 l-464.4-1.5C112.6,534.1,117.4,538.5,122.5,542.6z"></path> <path class="st0" d="M572,278.3c0-0.2-0.1-0.4-0.1-0.6c-0.1-0.2-0.3-0.3-0.8-0.8c-2,0-4.3-0.1-6.6-0.1c-76.5,0-153.1,0-229.6,0 c-1.4,0-2.8-0.1-4.2,0c-1.1,0.1-2.2,0.4-3.5,0.7c0,2.5,0,4.6,0,6.8c0,33.3,0,66.6,0,99.9c0,7.5,0,15.1,0,22.6 c0,1.3,0.3,2.6,0.6,4.3c3.9,0,7.4,0,10.9,0c3.6,0,7.1,0,10.7,0c3.6,0,7.1,0,10.7,0c3.6,0,7.1,0,10.7,0c3.6,0,7.1,0,10.7,0 s7.1,0,10.7,0c3.6,0,7.1,0,10.7,0c3.6,0,7.1,0,10.7,0c3.5,0,7-0.2,11,0.2c-0.8,2.4-2.3,3.8-3.5,5.2c-24.8,28.9-56,46-93.9,50.8 c-17.9,2.3-35.6,1.3-53.1-3.4c-30.4-8.2-55.7-24.6-76-48.5c-21.7-25.6-33.2-55.5-35.6-89c-2.1-29.6,3.5-57.5,17-84 c23.7-46.5,73.2-79.5,124.9-80.4c22.8-0.4,44.5,3.5,65.2,13.3c15.4,7.2,29.1,16.8,41.5,28.4c1.4,1.3,2.9,2.6,4.4,4 c1.9-1.2,3.5-2.3,5.2-3.4c10.4-6.9,20.8-13.8,31.2-20.7c26.9-17.9,53.8-35.8,80.7-53.7c1.6-1,3.7-1.6,4.3-3.9 c-0.5-0.6-1-1.3-1.5-1.9c-28.9-33.5-63.2-59.9-103.3-78.7c-33.2-15.6-68.1-24.6-104.7-26.7c-18.8-1.1-37.6-0.6-56.4,1.8 c-20.3,2.6-40.2,7.1-59.4,14C91.9,77.6,18.1,189,15.6,306.8c-0.5,22.3,1.2,44.4,5.5,66.3c7.8,40.3,23.2,77,46,110.2h505 C572.1,414.9,572,346.6,572,278.3z"></path> </g> </svg> 